<?xml version="1.0" standalone="no"?>
<!DOCTYPE svg PUBLIC "-//W3C//DTD SVG 20010904//EN"
 "http://www.w3.org/TR/2001/REC-SVG-20010904/DTD/svg10.dtd">
<svg version="1.0" xmlns="http://www.w3.org/2000/svg"
 width="874.000000pt" height="438.000000pt" viewBox="0 0 874.000000 438.000000"
 preserveAspectRatio="xMidYMid meet">

<g transform="translate(0.000000,438.000000) scale(0.100000,-0.100000)"
fill="#000000" stroke="none">
<path d="M0 2190 l0 -2190 4370 0 4370 0 0 2190 0 2190 -4370 0 -4370 0 0
-2190z m4690 1120 l0 -1060 -320 0 -320 0 0 1060 0 1060 320 0 320 0 0 -1060z
m0 -2240 l0 -1060 -320 0 -320 0 0 1060 0 1060 320 0 320 0 0 -1060z"/>
</g>
</svg>
